<?xml version="1.0" ?><svg enable-background="new 0 0 30 30" height="512" id="Layer_1" version="1.1" viewBox="0 0 512 512" width="512" xml:space="preserve" xmlns="http://www.w3.org/2000/svg" xmlns:cc="http://creativecommons.org/ns#" xmlns:dc="http://purl.org/dc/elements/1.1/" xmlns:inkscape="http://www.inkscape.org/namespaces/inkscape" xmlns:rdf="http://www.w3.org/1999/02/22-rdf-syntax-ns#" xmlns:sodipodi="http://sodipodi.sourceforge.net/DTD/sodipodi-0.dtd" xmlns:svg="http://www.w3.org/2000/svg" xmlns:xlink="http://www.w3.org/1999/xlink"><defs id="defs15"><linearGradient gradientUnits="userSpaceOnUse" id="SVGID_1_" x1="255.5562" x2="255.55611" y1="512" y2="0.00048828131"><stop id="stop4" offset="0" style="stop-color:#43B349"/><stop id="stop6" offset="1" style="stop-color:#70BE44"/></linearGradient><linearGradient gradientTransform="matrix(1,0,0,-1,-797.2319,713.48067)" gradientUnits="userSpaceOnUse" id="linearGradient3005" x1="255.5562" x2="255.55611" xlink:href="#SVGID_1_" y1="512" y2="0.00048828131"/><linearGradient gradientTransform="matrix(0,-1,-1,0,511.3832,511.3832)" gradientUnits="userSpaceOnUse" id="linearGradient3803" x1="-0.61680001" x2="511.38321" xlink:href="#SVGID_1_" y1="256" y2="256"/><linearGradient gradientTransform="matrix(0,-1,-1,0,511.3832,511.3832)" gradientUnits="userSpaceOnUse" id="linearGradient3790" x1="-0.61680001" x2="511.38321" xlink:href="#SVGID_1_" y1="256" y2="256"/><linearGradient gradientTransform="matrix(0,-1,-1,0,512.0082,511.3832)" gradientUnits="userSpaceOnUse" id="linearGradient3793" x1="-0.61680001" x2="511.38321" xlink:href="#SVGID_1_" y1="256" y2="256"/></defs><g id="g3795"><path d="M 256,0 C 153.78773,0 42.3125,92.97477 42.3125,227.5625 42.3125,362.15023 140.83413,512 256,512 371.16587,512 469.6875,362.15023 469.6875,227.5625 469.6875,92.97477 358.21227,0 256,0 z" id="path5" style="fill:url(#linearGradient3793);fill-opacity:1;stroke:none"/><path d="m 132.42187,157.21388 c -33.014355,0.4108 -60.499995,13.5625 -60.499995,13.5625 0,0 1.38222,55.49168 52.718755,80.46875 51.34507,24.97707 112.375,12.5 112.375,12.5 0,0 -1.38962,-62.44501 -51.34375,-92.96875 -17.17174,-10.49253 -35.95676,-13.77768 -53.25001,-13.5625 z m 247.15625,0 c -17.29323,-0.21518 -36.10951,3.06997 -53.28124,13.5625 -49.9456,30.53227 -51.34375,92.96875 -51.34375,92.96875 0,0 61.06972,12.47707 112.40624,-12.5 51.33655,-24.97707 52.71875,-80.46875 52.71875,-80.46875 0,0 -27.48564,-13.1517 -60.5,-13.5625 z" id="rect2987-1" style="fill:#ffffff;fill-opacity:1;stroke:none"/></g></svg>