<?xml version="1.0" encoding="iso-8859-1"?>
<!-- Generator: Adobe Illustrator 18.0.0, SVG Export Plug-In . SVG Version: 6.00 Build 0)  -->
<!DOCTYPE svg PUBLIC "-//W3C//DTD SVG 1.1//EN" "http://www.w3.org/Graphics/SVG/1.1/DTD/svg11.dtd">
<svg version="1.1" id="Capa_1" xmlns="http://www.w3.org/2000/svg" xmlns:xlink="http://www.w3.org/1999/xlink" x="0px" y="0px"
	 viewBox="0 0 355.559 355.559" style="enable-background:new 0 0 355.559 355.559;" xml:space="preserve">
<g>
	<path style="fill:#4D4D4D;" d="M340.31,177.784c0,93.97-76.18,170.15-170.15,170.15c-21.95,0-42.93-4.15-62.19-11.72
		c-21.11-8.29-40.16-20.68-56.17-36.19c-4.48-4.33-8.73-8.91-12.71-13.72c-4.25-5.13-8.21-10.53-11.85-16.15
		C10,243.554,0,211.834,0,177.784c0-37.69,12.25-72.53,33-100.72c4.93-6.7,10.33-13.03,16.17-18.93
		c30.84-31.19,73.66-50.51,120.99-50.51C264.13,7.624,340.31,83.804,340.31,177.784z"/>
	<path style="fill:#54AD4D;" d="M166.1,300.484l-114.3-0.46c-9.27-8.97-17.52-18.99-24.56-29.87C10,243.554,0,211.834,0,177.784
		c0-37.69,12.25-72.53,33-100.72c4.93-6.7,10.33-13.03,16.17-18.93c36.57,13.89,61.17,33.62,74.97,47.16
		c6.4,6.26,17.14,3.54,19.74-5.03l-10.97,150.78c-0.72,9.95,2.97,19.73,10.08,26.72L166.1,300.484z"/>
	<path style="fill:#5EBF58;" d="M351.059,259.276l-3.386,3.163l-4.415,4.117l-36.949,34.488l-140.204-0.552l-23.106-22.718
		c-7.115-6.996-10.8-16.782-10.084-26.731l10.964-150.78l4.52-14.961c4.564-15.082,21.63-22.391,35.696-15.29l123.788,62.459
		c7.533,3.801,13.065,10.662,15.183,18.829l25.443,98.118l1.522,5.862L351.059,259.276z"/>
	<circle style="fill:#71D36A;" cx="249.623" cy="169.029" r="40.276"/>
	<path style="fill:#4DAD73;" d="M249.623,213.779c-24.676,0-44.751-20.075-44.751-44.751s20.075-44.751,44.751-44.751
		s44.751,20.075,44.751,44.751S274.299,213.779,249.623,213.779z M249.623,133.228c-19.74,0-35.801,16.06-35.801,35.801
		s16.06,35.801,35.801,35.801s35.801-16.06,35.801-35.801S269.364,133.228,249.623,133.228z"/>
	<circle style="fill:#4D4D4D;" cx="261.396" cy="169.029" r="11.773"/>
	<path style="fill:none;stroke:#54AD4D;stroke-width:9;stroke-linecap:round;stroke-miterlimit:10;" d="M351.059,259.276
		c0,0-140.111-39.532-164.166-14.617"/>
	<path style="fill:#54AD4D;" d="M135.01,300.354c0,0-23.08,10.42-27.04,35.85v0.01c-21.11-8.29-40.16-20.68-56.17-36.19
		c-4.48-4.33-8.73-8.91-12.71-13.72L135.01,300.354z"/>
</g>
<g>
</g>
<g>
</g>
<g>
</g>
<g>
</g>
<g>
</g>
<g>
</g>
<g>
</g>
<g>
</g>
<g>
</g>
<g>
</g>
<g>
</g>
<g>
</g>
<g>
</g>
<g>
</g>
<g>
</g>
</svg>
