<?xml version="1.0" encoding="iso-8859-1"?>
<!-- Generator: Adobe Illustrator 18.0.0, SVG Export Plug-In . SVG Version: 6.00 Build 0)  -->
<!DOCTYPE svg PUBLIC "-//W3C//DTD SVG 1.1//EN" "http://www.w3.org/Graphics/SVG/1.1/DTD/svg11.dtd">
<svg version="1.1" id="Capa_1" xmlns="http://www.w3.org/2000/svg" xmlns:xlink="http://www.w3.org/1999/xlink" x="0px" y="0px"
	 viewBox="0 0 408.331 408.331" style="enable-background:new 0 0 408.331 408.331;" xml:space="preserve">
<g>
	<path style="fill:#7CCFED;" d="M340.25,204.161c0,13.3-1.53,26.25-4.42,38.67c-17.5,75.33-85.04,131.46-165.7,131.46
		c-55.58,0-104.94-26.65-135.98-67.88C12.71,277.951,0,242.541,0,204.161c0-34.96,10.54-67.46,28.63-94.48
		c30.51-45.61,82.5-75.64,141.5-75.64c83.18,0,152.41,59.69,167.2,138.57C339.25,182.841,340.25,193.381,340.25,204.161z"/>
	<path style="fill:#009245;" d="M407.51,214.931c-0.41,1.54-1.03,2.98-1.88,4.11c-10.74,14.07-28.31,21.23-45.97,22.32l-23.83,1.47
		l-182.61,11.23c0,0-43.16,36.13-119.07,52.35C12.71,277.951,0,242.541,0,204.161c0-34.96,10.54-67.46,28.63-94.48
		c24.27-6.1,51.86-11.65,81.77-15.36c13.88-1.73,36.34-2.9,54.56-3.63c16.71-0.68,32.86,6.64,43,19.93
		c3.54,4.66,7.32,9.06,11.3,13.24c30.4,31.83,73.19,49.9,118.07,48.75c4.05-0.11,8.11-0.37,12.18-0.79l11.95-1.23
		c21.37-2.21,41.5,11.58,46.23,32.53c0.14,0.58,0.26,1.16,0.37,1.75c0.02,0.13,0.05,0.28,0.07,0.41
		C408.47,207.571,408.45,211.511,407.51,214.931z"/>
	<path style="fill:#4D4D4D;" d="M200.57,129.481L200.57,129.481c-12.788,5.78-27.839,0.099-33.619-12.688v0l0,0
		C179.738,111.013,194.79,116.694,200.57,129.481L200.57,129.481z"/>
	<path style="fill:#0A753A;" d="M153.215,254.061c0,0-34.783-9.899-68.698-65c0,0,4.68,49.896,52.286,76.505L153.215,254.061z"/>
	<path style="fill:#0A753A;" d="M407.512,214.935c-9.834,3.866-41.701,14.452-76.921,5.551c-1.83-0.459-3.678-0.982-5.524-1.562
		c-1.914-0.585-3.826-1.229-5.751-1.956c-2.676-0.986-5.351-2.112-8.029-3.367c-0.761-0.354-1.52-0.719-2.275-1.096
		c-11.355-5.658-23.723-8.309-35.786-7.67c-9.088,0.478-19.86,0.103-31.863-2.049c-2.098-0.364-4.237-0.796-6.407-1.294
		c-1.238-0.265-2.479-0.564-3.728-0.878c-0.581-0.146-1.172-0.294-1.761-0.454c-2.251-0.589-4.541-1.256-6.864-1.979
		c-1.912-0.597-3.845-1.245-5.792-1.932c-2.115-0.764-4.242-1.566-6.397-2.445l-0.011-0.003
		c-15.82-6.384-32.813-16.077-50.37-30.478l-0.161-0.146c-12.271-11.105-34.956-12.923-44.141-3.525
		c-1.171,1.185-2.834,1.594-4.346,1.215c-0.756-0.19-1.465-0.566-2.054-1.145c-1.185-1.171-1.594-2.834-1.215-4.346
		c0.19-0.756,0.566-1.466,1.145-2.054c8.222-8.394,22.999-10.658,36.716-7.214c7.307,1.835,14.315,5.283,19.871,10.288
		c15.482,12.692,30.486,21.538,44.516,27.587c3.675,1.598,7.274,2.991,10.812,4.206c0.482,0.168,0.964,0.335,1.449,0.492
		c3.834,1.289,7.581,2.369,11.221,3.272c0.285,0.072,0.569,0.143,0.857,0.203c3.941,0.955,7.759,1.704,11.441,2.256
		c9.954,1.545,18.916,1.803,26.601,1.392c12.841-0.677,25.953,1.928,38.087,7.549c0.742,0.338,1.479,0.697,2.204,1.055
		c3.667,1.817,7.333,3.355,10.998,4.624c0.104,0.049,0.2,0.085,0.298,0.11c3.831,1.346,7.655,2.4,11.435,3.209
		c37.33,8.104,70.635-6.722,71.03-6.902l1.264-0.58c0.024,0.135,0.046,0.28,0.071,0.414
		C408.465,207.569,408.452,211.514,407.512,214.935z"/>
	<g>
		<path style="fill:#FFFCD2;" d="M313.035,204.408c3.667,1.817,7.333,3.355,10.998,4.624l-10.859,15.508l-2.344-21.187
			C311.573,203.691,312.309,204.051,313.035,204.408z"/>
		<path style="fill:#FFFCD2;" d="M335.766,212.352l-8.827,10.987l-2.608-14.196C328.163,210.489,331.986,211.542,335.766,212.352z"
			/>
		<path style="fill:#FFFCD2;" d="M222.623,188.682c3.834,1.289,7.581,2.369,11.221,3.272l-10.065,16.337L222.623,188.682z"/>
		<path style="fill:#FFFCD2;" d="M246.143,194.413l-9.682,14.301l-1.759-16.557C238.643,193.112,242.461,193.861,246.143,194.413z"
			/>
		<path style="fill:#FFFCD2;" d="M221.174,188.19l-9.505,14.986l-0.073-14.134l-1.234-5.058
			C214.038,185.583,217.636,186.976,221.174,188.19z"/>
	</g>
</g>
<g>
</g>
<g>
</g>
<g>
</g>
<g>
</g>
<g>
</g>
<g>
</g>
<g>
</g>
<g>
</g>
<g>
</g>
<g>
</g>
<g>
</g>
<g>
</g>
<g>
</g>
<g>
</g>
<g>
</g>
</svg>
