<?xml version="1.0" encoding="iso-8859-1"?>
<!-- Generator: Adobe Illustrator 19.0.0, SVG Export Plug-In . SVG Version: 6.00 Build 0)  -->
<svg version="1.1" id="Layer_1" xmlns="http://www.w3.org/2000/svg" xmlns:xlink="http://www.w3.org/1999/xlink" x="0px" y="0px"
	 viewBox="0 0 512 512" style="enable-background:new 0 0 512 512;" xml:space="preserve">
<path style="fill:#A0C432;" d="M360.636,458.913H151.363c-55.952,0-99.15-32.056-124.921-92.703C2.576,310.051,0,244.852,0,219.427
	c0-10.638,3.855-29.244,14.674-49.561c13.03-24.467,32.556-45.273,58.091-61.919c10.809-32.614,41.23-54.861,76.135-54.861
	c16.3,0,32.23,4.999,45.563,14.193c19.273-2.387,39.939-3.593,61.538-3.593c21.598,0,42.264,1.207,61.537,3.593
	c13.333-9.194,29.263-14.193,45.564-14.193c34.904,0,65.325,22.248,76.135,54.862c25.534,16.644,45.06,37.451,58.09,61.918
	C508.144,190.183,512,208.789,512,219.427c0,25.425-2.577,90.624-26.442,146.783C459.786,426.857,416.589,458.913,360.636,458.913"
	/>
<g>
	<rect x="133.224" y="300.858" style="fill:#D8D9DD;" width="31.347" height="71.948"/>
	<rect x="195.992" y="333.616" style="fill:#D8D9DD;" width="31.347" height="69.35"/>
</g>
<g>
	<polyline style="fill:#A0A1A5;" points="378.774,372.802 347.426,372.802 347.426,300.854 378.774,300.854 378.774,372.802 	"/>
	<polyline style="fill:#A0A1A5;" points="316.003,402.972 284.657,402.972 284.657,333.618 316.003,333.618 316.003,402.972 	"/>
</g>
<g>
	<path style="fill:#333333;" d="M130.934,139.08c0-11.513,9.229-20.835,20.569-20.835c11.355,0,20.582,9.324,20.582,20.835
		c0,11.511-9.227,20.843-20.582,20.843C140.164,159.922,130.934,150.59,130.934,139.08z"/>
	<path style="fill:#333333;" d="M381.065,139.08c0-11.513-9.227-20.836-20.569-20.836c-11.355,0-20.582,9.324-20.582,20.836
		c0,11.511,9.226,20.843,20.582,20.843C371.836,159.922,381.065,150.59,381.065,139.08"/>
	<path style="fill:#333333;" d="M206.869,264.019c0-9.058,7.261-16.393,16.183-16.393c8.934,0,16.194,7.335,16.194,16.393
		c0,9.056-7.26,16.399-16.194,16.399C214.13,280.417,206.869,273.075,206.869,264.019z"/>
</g>
<path d="M305.13,264.019c0-9.125-7.308-16.521-16.305-16.521c-9.009,0-16.317,7.396-16.317,16.521
	c0,9.124,7.309,16.521,16.317,16.521C297.823,280.539,305.13,273.143,305.13,264.019"/>
<g>
	<path style="fill:#779226;" d="M256,352.783c-89.007,0-112.688-26.839-131.716-48.406c-13.116-14.866-21.781-24.685-54.406-24.685
		v-31.348c46.772,0,63.315,18.751,77.912,35.294c16.395,18.584,33.35,37.799,108.211,37.799s91.814-19.216,108.211-37.799
		c14.597-16.543,31.14-35.294,77.912-35.294v31.348c-32.626,0-41.29,9.82-54.406,24.685
		C368.688,325.945,345.007,352.783,256,352.783"/>
	<path style="fill:#779226;" d="M288.825,280.539c-9.009,0-16.317-7.396-16.317-16.521c0-9.125,7.309-16.521,16.317-16.521
		c8.998,0,16.305,7.396,16.305,16.521C305.13,273.143,297.823,280.539,288.825,280.539 M360.496,159.922
		c-11.355,0-20.582-9.332-20.582-20.843c0-11.513,9.226-20.836,20.582-20.836c11.34,0,20.569,9.324,20.569,20.836
		C381.065,150.59,371.836,159.922,360.496,159.922 M363.102,53.087c-16.3,0-32.231,4.999-45.564,14.193
		c-19.273-2.387-39.939-3.593-61.537-3.593l0,0c-1.755,0-3.495,0.022-5.238,0.037v257.681c1.713,0.022,3.46,0.032,5.237,0.032
		c74.86,0,91.814-19.216,108.211-37.799c14.597-16.543,31.14-35.294,77.912-35.294v31.348c-32.626,0-41.29,9.82-54.406,24.685
		c-2.814,3.189-5.728,6.492-8.942,9.808v58.617h-31.348v-35.812c-8.577,4.083-18.838,7.641-31.422,10.342v55.638h-31.347v-51.24
		c-8.723,0.683-18.243,1.051-28.657,1.051c-1.771,0-3.517-0.01-5.237-0.032v106.163h109.873c55.953,0,99.15-32.056,124.922-92.703
		C509.423,310.051,512,244.852,512,219.427c0-10.638-3.855-29.244-14.672-49.561c-13.03-24.466-32.556-45.272-58.09-61.918
		C428.427,75.335,398.006,53.087,363.102,53.087"/>
</g>
<path style="fill:#333333;" d="M288.825,247.498c-9.009,0-16.317,7.396-16.317,16.521c0,9.124,7.309,16.521,16.317,16.521
	c8.998,0,16.305-7.396,16.305-16.521C305.13,254.894,297.823,247.498,288.825,247.498"/>
<path style="fill:#586C1C;" d="M442.121,248.345c-46.772,0-63.315,18.751-77.912,35.294c-16.396,18.584-33.35,37.799-108.211,37.799
	c-1.777,0-3.524-0.01-5.237-0.032v31.347c1.72,0.021,3.466,0.032,5.237,0.032c10.414,0,19.935-0.368,28.657-1.051
	c11.835-0.927,22.204-2.437,31.347-4.399c12.585-2.701,22.846-6.259,31.422-10.342c14.047-6.687,23.571-14.781,31.348-22.805
	c3.214-3.317,6.128-6.619,8.942-9.808c13.116-14.866,21.78-24.685,54.406-24.685V248.345"/>
<g>
</g>
<g>
</g>
<g>
</g>
<g>
</g>
<g>
</g>
<g>
</g>
<g>
</g>
<g>
</g>
<g>
</g>
<g>
</g>
<g>
</g>
<g>
</g>
<g>
</g>
<g>
</g>
<g>
</g>
</svg>
