<?xml version="1.0" ?><svg height="64px" id="Слой_1" style="enable-background:new 0 0 64 64;" version="1.1" viewBox="0 0 64 64" width="64px" xml:space="preserve" xmlns="http://www.w3.org/2000/svg" xmlns:xlink="http://www.w3.org/1999/xlink"><g id="row_5"><g id="eye"><g><path d="M3.6,17.4c3.1-5.9,7.9-10.8,13.8-13.8c0.4-0.2,0.9-0.3,1.4-0.1c2,0.6,3.9,1.6,5.5,3.2L6.7,24.3     c-1.6-1.6-2.7-3.5-3.2-5.5C3.3,18.3,3.4,17.8,3.6,17.4z" style="fill:#F44336;"/><path d="M46.6,3.6c5.9,3.1,10.8,7.9,13.8,13.8c0.2,0.4,0.3,0.9,0.1,1.4c-0.6,2-1.6,3.9-3.2,5.5L39.7,6.7     c1.6-1.6,3.5-2.7,5.5-3.2C45.7,3.3,46.2,3.4,46.6,3.6z" style="fill:#F44336;"/><path d="M60.4,46.6c-3.1,5.9-7.9,10.8-13.8,13.8c-0.4,0.2-0.9,0.3-1.4,0.1c-2-0.6-3.9-1.6-5.5-3.2     l17.7-17.7c1.6,1.6,2.7,3.5,3.2,5.5C60.7,45.7,60.6,46.2,60.4,46.6z" style="fill:#F44336;"/><path d="M17.4,60.4c-5.9-3.1-10.8-7.9-13.8-13.8c-0.2-0.4-0.3-0.9-0.1-1.4c0.6-2,1.6-3.9,3.2-5.5     l17.7,17.7c-1.6,1.6-3.5,2.7-5.5,3.2C18.3,60.7,17.8,60.6,17.4,60.4z" style="fill:#F44336;"/></g><circle cx="32" cy="32" r="29" style="fill:#FFEBEE;"/><g><defs><circle cx="32" cy="32" id="SVGID_1_" r="29"/></defs><clipPath id="SVGID_2_"><use style="overflow:visible;" xlink:href="#SVGID_1_"/></clipPath><g style="clip-path:url(#SVGID_2_);"><path d="M12.9,23.7c-1,0.3-2,0.7-2.9,1.3c-3.1,1.9-5.1,5-5.6,8.5c-1.4,0-2.8-0.3-4.1-0.9      c-0.3-0.1-0.5,0-0.7,0.3c-0.1,0.3,0,0.5,0.3,0.7c1.6,0.7,3.2,1,4.9,1c0,0,0,0,0,0c0,0,0,0,0,0c0,0,0,0,0,0      c0.8,0,1.6-0.1,2.4-0.3c0.6,0.8,1.1,1.7,1.5,2.6c0.1,0.2,0.3,0.3,0.5,0.3c0.1,0,0.1,0,0.2,0c0.3-0.1,0.4-0.4,0.3-0.7      c-0.4-0.9-0.8-1.7-1.4-2.5c0.9-0.3,1.8-0.6,2.6-1.1c0.2-0.1,0.3-0.4,0.2-0.7c-0.1-0.2-0.4-0.3-0.7-0.2c-1.5,0.9-3.2,1.4-5,1.5      c0.5-3.2,2.4-6,5.2-7.7c0.8-0.5,1.7-0.9,2.7-1.2c0.3-0.1,0.4-0.4,0.3-0.6C13.5,23.8,13.2,23.7,12.9,23.7z" style="fill:#FFCDD2;"/><path d="M62.8,32.9c-0.1-0.3-0.4-0.4-0.7-0.3c-0.8,0.4-1.7,0.6-2.6,0.8c-0.4-0.4-0.8-0.7-1.2-1      c-0.9-1.5-2.1-2.7-3.5-3.7c-0.9-0.6-1.8-1.1-2.9-1.4c-0.3-0.1-0.5,0-0.6,0.3c-0.1,0.3,0,0.5,0.3,0.6c0.9,0.3,1.8,0.8,2.6,1.3      c0.7,0.5,1.4,1.1,1.9,1.7c-0.5-0.2-0.9-0.4-1.4-0.5c-0.3-0.1-0.5,0.1-0.6,0.3s0.1,0.5,0.3,0.6c1.3,0.4,2.6,1,3.7,1.9      C56,33.6,53.9,33.1,52,32c-0.2-0.1-0.5-0.1-0.7,0.2c-0.1,0.2-0.1,0.5,0.2,0.7c1.9,1.1,4,1.7,6.2,1.7c0.6,0,1.1-0.1,1.7-0.1      c0,0,0,0,0,0c0,0,0.1,0,0.1,0c1-0.2,2-0.4,3-0.9C62.8,33.4,62.9,33.1,62.8,32.9z" style="fill:#FFCDD2;"/><path d="M36.4,51.8c-0.3-0.1-0.5,0.1-0.6,0.3c-0.1,0.4-0.3,0.7-0.4,1.1c-0.5-0.8-0.8-1.7-1-2.7      c-0.1-0.3-0.3-0.4-0.6-0.4c-0.3,0.1-0.4,0.3-0.4,0.6c0.3,1.2,0.8,2.4,1.4,3.5c-0.7,1.2-1.6,2.2-2.7,3c-1.4-1.3-2.4-3-2.9-4.9      c-0.1-0.3-0.3-0.4-0.6-0.4c-0.3,0.1-0.4,0.3-0.4,0.6c0.1,0.5,0.3,1,0.5,1.5c-0.7-0.4-1.3-0.8-1.9-1.3c-0.2-0.2-0.5-0.2-0.7,0      c-0.2,0.2-0.2,0.5,0,0.7c1,0.9,2.1,1.5,3.3,2c0.6,1,1.3,1.8,2.1,2.6c0,2.1,0.4,4.1,1.1,6.1c0.1,0.2,0.3,0.3,0.5,0.3      c0.1,0,0.1,0,0.2,0c0.3-0.1,0.4-0.4,0.3-0.6c-0.6-1.8-1-3.7-1-5.7c1.3-1,2.4-2.2,3.2-3.6c0,0,0,0,0-0.1c0.4-0.6,0.7-1.3,0.9-2      C36.8,52.2,36.6,51.9,36.4,51.8z" style="fill:#FFCDD2;"/><path d="M30.1,9.7c0.1,0,0.2,0.1,0.3,0.1c0.2,0,0.3-0.1,0.4-0.2c0.4-0.7,0.9-1.2,1.4-1.7      c0.8,1,1.8,1.8,2.9,2.4c0.1,0,0.1,0,0.2,0c0.2,0,0.4-0.1,0.5-0.3c0.1-0.2,0-0.5-0.2-0.7C33,8,31.4,5.5,31.4,2.7      c0-0.3-0.2-0.5-0.5-0.5s-0.5,0.2-0.5,0.5c0,1.5,0.4,3,1.2,4.3c-0.7,0.6-1.3,1.3-1.7,2.1C29.8,9.3,29.8,9.6,30.1,9.7z" style="fill:#FFCDD2;"/></g></g><circle cx="32" cy="32" r="0" style="fill:#4F5D73;"/><circle cx="32" cy="32" r="13.5" style="fill:#009EFF;"/><circle cx="32" cy="32" r="8" style="fill:#4F5D73;"/><path d="M26.4,21.1c1.5,1.5,1.5,3.8,0,5.3s-3.8,1.5-5.3,0s-0.7-3.1,0.7-4.6S24.9,19.6,26.4,21.1z" style="fill:#FFFFFF;"/><g><path d="M19.8,11.3c-3.5,2.1-6.4,5-8.5,8.5c-1.5-1.5-3.3-2.6-5.2-3.4c-1-0.4-2.1,0.1-2.5,1     c3.1-5.9,7.9-10.8,13.8-13.8c-0.9,0.4-1.4,1.5-1,2.5C17.1,8,18.3,9.8,19.8,11.3z" style="fill:#EF9A9A;"/><path d="M52.7,19.8c-2.1-3.5-5-6.4-8.5-8.5c1.5-1.5,2.6-3.3,3.4-5.2c0.4-1-0.1-2.1-1-2.5     c5.9,3.1,10.8,7.9,13.8,13.8c-0.4-0.9-1.5-1.4-2.5-1C56,17.1,54.2,18.3,52.7,19.8z" style="fill:#EF9A9A;"/><path d="M44.2,52.7c3.5-2.1,6.4-5,8.5-8.5c1.5,1.5,3.3,2.6,5.2,3.4c1,0.4,2.1-0.1,2.5-1     c-3.1,5.9-7.9,10.8-13.8,13.8c0.9-0.4,1.4-1.5,1-2.5C46.9,56,45.7,54.2,44.2,52.7z" style="fill:#EF9A9A;"/><path d="M11.3,44.2c2.1,3.5,5,6.4,8.5,8.5c-1.5,1.5-2.6,3.3-3.4,5.2c-0.4,1,0.1,2.1,1,2.5     c-5.9-3.1-10.8-7.9-13.8-13.8c0.4,0.9,1.5,1.4,2.5,1C8,46.9,9.8,45.7,11.3,44.2z" style="fill:#EF9A9A;"/></g></g></g></svg>