<?xml version="1.0" encoding="utf-8"?>
<!-- Generator: Adobe Illustrator 19.0.0, SVG Export Plug-In . SVG Version: 6.00 Build 0)  -->
<svg version="1.1" id="Layer_1" xmlns="http://www.w3.org/2000/svg" xmlns:xlink="http://www.w3.org/1999/xlink" x="0px" y="0px"
	 viewBox="0 0 500.4 180.8" style="enable-background:new 0 0 500.4 180.8;" xml:space="preserve">
<style type="text/css">
	.st0{fill:#78D2FF;}
	.st1{fill:#FFFFFF;}
	.st2{fill:#6AADEB;}
	.st3{fill:#2191C9;}
	.st4{fill:#FFF200;}
</style>
<polygon class="st0" points="214.8,49.4 214.8,49.4 242.3,15.9 273,52 303.7,31.3 334.6,81.7 153.8,80.1 178.3,61.9 "/>
<polyline class="st1" points="214.4,49.4 267.4,80.7 213.3,80.6 190.5,68.5 214.4,49.4 "/>
<polyline class="st1" points="242.3,15.9 232.3,59.9 214.4,49.4 "/>
<polyline class="st2" points="334.6,81.8 343,93.7 310.1,127 282.7,124.7 267.4,138.1 261.1,180.8 204.2,135.8 186.6,135.8 
	179.4,108.2 166.4,100.9 153.8,80.1 "/>
<polygon class="st3" points="261.1,180.8 232,143.1 245.4,138 218.9,113.5 239.6,118.7 213.3,80.6 213.3,80.6 331.9,81.8 343,93.7 
	320.7,116.2 292.4,159.6 267.4,138.1 267.4,138.1 "/>
<polygon class="st1" points="273,52 299.1,80.1 333.1,81 "/>
<polyline class="st1" points="300.1,65 303.7,31.3 273,52 "/>
<polyline class="st2" points="292.4,159.6 267.4,138.1 267.4,114.8 "/>
<polyline class="st1" points="0,79.4 17.4,68.5 29.7,50.3 46.1,47.4 50.2,36.6 62.5,36.6 76.1,7 92.5,43.2 107.6,49.6 113.9,68.5 
	124.7,79.4 "/>
<polyline class="st0" points="76.1,7 62.3,52.5 77.7,79.4 124.7,79.4 113.9,68.5 107.6,49.6 96.4,44.8 "/>
<polyline class="st0" points="0.8,79.4 41.5,79.4 28.7,69.5 29.7,50.3 18.7,67.1 "/>
<polyline class="st3" points="125.5,79.4 108.1,96.9 102.1,116.3 102.1,116.3 94.6,142.7 69.3,138.5 58,163 39.2,127.9 24.2,117.5 
	11.6,96.9 0.8,79.4 "/>
<polyline class="st2" points="58,163 48.6,103.5 47.8,79.4 0.8,79.4 11.6,96.9 24.2,117.5 35.3,125.2 "/>
<polyline class="st2" points="124.7,79.4 84,79.4 96.8,95.2 102.1,116.3 106.8,99.1 "/>
<polyline class="st2" points="94.6,142.7 69.3,138.5 64.9,104.3 "/>
<polyline class="st0" points="500.4,79.4 483,68.5 478.6,50.3 461,37.4 456.9,26.5 437.9,36.6 420.7,17.9 407.9,43.2 392.8,49.6 
	386.5,68.5 375.7,79.4 "/>
<polyline class="st1" points="420.7,17.9 429.9,53 413.9,79.4 375.7,79.4 386.5,68.5 392.8,49.6 404,44.8 "/>
<polyline class="st1" points="498.2,78 458.9,79.4 471.7,69.5 478.6,50.3 481.7,67.1 "/>
<polyline class="st2" points="374.9,79.4 392.3,96.9 398.3,116.3 398.3,116.3 394.7,132.7 420,128.5 436.8,150.2 461.2,127.9 
	476.2,117.5 488.8,96.9 499.6,79.4 "/>
<polyline class="st3" points="436.8,150.2 451.8,103.5 452.6,79.4 499.6,79.4 488.8,96.9 476.2,117.5 465.1,125.2 "/>
<polyline class="st3" points="377.1,81.5 416.4,79.4 392.6,85.1 393.2,98.3 393.6,99.1 "/>
<polyline class="st3" points="394.7,132.7 420,128.5 424.5,94.2 "/>
<polyline class="st1" points="452.6,79.4 463,64.8 463,38.9 456.9,26.5 442.4,34.2 450.5,53 432.1,79.4 "/>
<polygon class="st4" points="337.6,21 338.9,23.7 342,24.2 339.8,26.4 340.3,29.4 337.6,28 334.8,29.4 335.4,26.4 333.1,24.2 
	336.2,23.7 "/>
<polygon class="st4" points="348.1,6.5 350.5,11.2 355.7,12 351.9,15.7 352.8,21 348.1,18.5 343.4,21 344.3,15.7 340.5,12 
	345.8,11.2 "/>
<polygon class="st4" points="159.9,11.8 160.6,13.2 162.2,13.4 161,14.6 161.3,16.2 159.9,15.4 158.4,16.2 158.7,14.6 157.5,13.4 
	159.1,13.2 "/>
<polygon class="st4" points="124.3,0 125.1,1.6 126.9,1.9 125.6,3.2 125.9,5 124.3,4.1 122.7,5 123,3.2 121.7,1.9 123.5,1.6 "/>
<polygon class="st4" points="113.7,11.1 115.3,14.2 118.7,14.7 116.2,17.2 116.8,20.6 113.7,19 110.6,20.6 111.2,17.2 108.7,14.7 
	112.2,14.2 "/>
</svg>
